<svg id="e7tc5hc9ir871" xmlns="http://www.w3.org/2000/svg" xmlns:xlink="http://www.w3.org/1999/xlink" viewBox="7 50 145.900000 211" shape-rendering="geometricPrecision" text-rendering="geometricPrecision" width="145.900000" height="211">
<style><![CDATA[#e7tc5hc9ir875-fill-0 {animation: e7tc5hc9ir875-fill-0__c 8000ms linear infinite normal forwards}@keyframes e7tc5hc9ir875-fill-0__c { 0% {stop-color: rgb(0,221,136)} 25% {stop-color: rgb(225,0,152)} 50% {stop-color: rgb(255,141,39)} 75% {stop-color: rgb(254,221,0)} 100% {stop-color: rgb(0,221,136)} }#e7tc5hc9ir875-fill-1 {animation: e7tc5hc9ir875-fill-1__c 8000ms linear infinite normal forwards}@keyframes e7tc5hc9ir875-fill-1__c { 0% {stop-color: rgb(68,0,153)} 25% {stop-color: rgb(44,204,253)} 50% {stop-color: rgb(68,0,153)} 75% {stop-color: rgb(44,204,253)} 100% {stop-color: rgb(68,0,153)} }]]>
</style>
<defs>
<linearGradient id="e7tc5hc9ir875-fill" x1="0.500000" y1="0" x2="0.500000" y2="1" spreadMethod="pad" gradientUnits="objectBoundingBox">
<stop id="e7tc5hc9ir875-fill-0" offset="0%" stop-color="rgb(0,221,136)"/>
<stop id="e7tc5hc9ir875-fill-1" offset="100%" stop-color="rgb(68,0,153)"/>
</linearGradient>
</defs>
<!-- <g id="e7tc5hc9ir872">
<path id="e7tc5hc9ir873" d="M211.200000,97.700000C212.500000,105.700000,219.200000,110.900000,230.900000,110.900000C244.200000,110.900000,251.900000,103.100000,251.900000,89.400000L251.900000,81.800000C251.900000,81.300000,251.700000,81.100000,251.200000,81.100000C250.500000,81.100000,250.200000,81.600000,249.900000,82.200000C245.200000,89.900000,237.900000,93.700000,228.100000,93.700000C212.600000,93.700000,198.500000,82.700000,198.500000,61.800000C198.500000,41,212.600000,29.900000,228.100000,29.900000C238,29.900000,245.600000,33.700000,250.500000,42.400000C250.900000,43.100000,251.200000,43.400000,251.800000,43.400000C252.400000,43.400000,252.700000,43.300000,252.900000,42.400000L255.600000,31.700000L263,31.700000L263,88.700000C263,108.900000,251,120.600000,230.900000,120.600000C211.200000,120.600000,200.300000,111,199,97.500000L211.200000,97.500000ZM231.100000,84C242.800000,84,252.600000,76,252.600000,61.900000C252.600000,47.800000,242.800000,39.800000,231.100000,39.800000C219.400000,39.800000,209.600000,47.800000,209.600000,61.900000C209.600000,76,219.400000,84,231.100000,84ZM338,75.400000C336.200000,85.100000,327.800000,97.500000,307.600000,97.500000C286.500000,97.500000,275.200000,84.600000,275.200000,63.800000C275.200000,43,287.700000,30,307.400000,30C327.300000,30,337.800000,42.900000,337.800000,60.700000L337.800000,66.800000L286.200000,66.800000C286.900000,81.200000,295.800000,87.900000,307.600000,87.900000C319.500000,87.900000,324.700000,82.600000,326.500000,75.400000L338,75.400000ZM286.500000,57.600000L326.700000,57.600000C326.200000,45.800000,319,39.600000,307.300000,39.600000C296.800000,39.600000,288.400000,45.600000,286.500000,57.600000ZM350.200000,95.700000L350.200000,31.900000L361.200000,31.900000L361.200000,42.200000C361.200000,42.700000,361.400000,42.900000,361.900000,42.900000C362.500000,42.900000,362.800000,42.700000,363,42.200000C366.600000,35.100000,372.200000,30.100000,384.500000,30.100000C399.800000,30.100000,409,39.300000,409,55.900000L409,95.800000L398,95.800000L398,57.800000C398,46.100000,391.900000,40,380.800000,40C368.500000,40,361.200000,47.400000,361.200000,62.700000L361.200000,95.800000L350.200000,95.800000ZM416.400000,41.700000L416.400000,31.900000L431.100000,31.900000L431.100000,14.200000L442.100000,14.200000L442.100000,31.900000L460.500000,31.900000L460.500000,41.700000L442.100000,41.700000L442.100000,68.100000C442.100000,79.100000,441.500000,82.300000,441.500000,84.800000C441.500000,85.400000,441.600000,85.800000,442,86.100000C442.400000,86.500000,442.700000,86.600000,443.300000,86.600000C445.600000,86.600000,448.800000,85.900000,458.600000,85.900000L460.400000,85.900000L460.400000,95.700000L449.400000,95.700000C437,95.700000,431,89.800000,431,77.300000L431,41.700000L416.400000,41.700000ZM471.600000,95.700000L471.600000,31.900000L482.600000,31.900000L482.600000,42.100000C482.600000,42.700000,482.800000,43,483.500000,43C484.200000,43,484.500000,42.600000,484.700000,41.800000C486.900000,34.800000,492.400000,31.600000,500.500000,31.600000L507.700000,31.600000L507.700000,42.400000L498.900000,42.400000C488.200000,42.400000,482.600000,47.300000,482.600000,59.600000L482.600000,95.800000L471.600000,95.800000ZM577.600000,31.900000L577.600000,95.700000L566.600000,95.700000L566.600000,84.700000C566.600000,84.200000,566.400000,84,565.900000,84C565.300000,84,565,84.200000,564.700000,85C560.500000,93.200000,553.200000,97.500000,542.600000,97.500000C527.300000,97.500000,511.900000,86.500000,511.900000,63.800000C511.900000,41.100000,527.200000,30.100000,542.600000,30.100000C553.100000,30.100000,560.800000,34.400000,565.300000,43.500000C565.700000,44.200000,566,44.500000,566.600000,44.500000C567.200000,44.500000,567.500000,44.100000,567.600000,43.600000L570.300000,31.900000L577.600000,31.900000ZM545.100000,39.900000C532.200000,39.900000,523,48.500000,523,63.800000C523,79.100000,532.200000,87.700000,545.100000,87.700000C558,87.700000,567.200000,79.100000,567.200000,63.800000C567.100000,48.400000,557.900000,39.900000,545.100000,39.900000ZM653.500000,70.500000C652.500000,85.800000,641.700000,97.500000,622.600000,97.500000C603.500000,97.500000,589.900000,85.500000,589.900000,63.800000C589.900000,42.100000,603.400000,30,622.600000,30C641.600000,30,652.300000,41.700000,653,55.100000L641.600000,55.100000C640.500000,46.100000,634.900000,39.800000,622.600000,39.800000C609.700000,39.800000,601,48.400000,601,63.700000C601,79,609.700000,87.600000,622.600000,87.600000C635,87.600000,641.200000,80.500000,642.100000,70.400000L653.500000,70.400000ZM724.300000,31.900000L724.300000,34.400000L696.600000,58.100000L724.300000,93.200000L724.300000,95.700000L712.200000,95.700000L688.400000,65.100000L676.400000,75.300000L676.400000,95.700000L665.400000,95.700000L665.400000,14.200000L676.400000,14.200000L676.400000,61.600000L710.100000,31.900000L724.300000,31.900000Z" transform="matrix(1 0 0 1 -4.30000000000007 40.16571700000000)" fill="rgb(0,0,0)" stroke="none" stroke-width="1"/> -->
<g id="e7tc5hc9ir874">
<path id="e7tc5hc9ir875" d="M60.800000,14.200000C67,14.200000,72.900000,15.600000,78.300000,18.100000C78.300000,18.100000,78.300000,18.200000,78.300000,18.200000C61.800000,25.900000,50.200000,42.600000,50.200000,63.700000C50.200000,84.800000,61.800000,101.900000,78.300000,109.500000C78.300000,109.500000,78.300000,109.600000,78.300000,109.600000C72.900000,112.100000,67,113.500000,60.800000,113.500000C35.500000,113.500000,14.200000,93.400000,14.200000,63.700000C14.200000,33.900000,35.400000,14.200000,60.800000,14.200000ZM102.200000,14.200000C96,14.200000,90.100000,15.600000,84.700000,18.100000C84.700000,18.100000,84.700000,18.200000,84.700000,18.200000C101.200000,25.900000,112.800000,42.600000,112.800000,63.700000C112.800000,84.800000,101.200000,101.900000,84.700000,109.500000C84.700000,109.500000,84.700000,109.600000,84.700000,109.600000C90.100000,112.100000,96,113.500000,102.200000,113.500000C127.500000,113.500000,148.800000,93.400000,148.800000,63.700000C148.800000,33.900000,127.600000,14.200000,102.200000,14.200000ZM54.700000,127.600000L21.300000,127.600000C26.400000,147,43.700000,159.500000,62.600000,159.500000C68.200000,159.500000,73.500000,158.300000,78.400000,156C78.400000,156,78.400000,155.900000,78.400000,155.900000C67,150.600000,58.300000,140.500000,54.700000,127.600000ZM108.300000,127.600000C104.800000,140.500000,96,150.700000,84.700000,155.900000C84.700000,155.900000,84.700000,156,84.700000,156C89.600000,158.200000,94.900000,159.500000,100.500000,159.500000C119.400000,159.500000,136.700000,147.100000,141.800000,127.600000L108.300000,127.600000Z" transform="matrix(1 0 0 1 -4.30000000000007 40.16571700000000)" fill="url(#e7tc5hc9ir875-fill)" stroke="none" stroke-width="1"/>
</g>

</svg>